<svg class="main-svg" xmlns="http://www.w3.org/2000/svg" xmlns:xlink="http://www.w3.org/1999/xlink" width="1200" height="600" style="" viewBox="0 0 1200 600"><rect x="0" y="0" width="1200" height="600" style="fill: rgb(255, 255, 255); fill-opacity: 1;"/><defs id="defs-49f5de"><g class="clips"><clipPath id="clip49f5dexyplot" class="plotclip"><rect width="1040" height="460"/></clipPath><clipPath class="axesclip" id="clip49f5dex"><rect x="80" y="0" width="1040" height="600"/></clipPath><clipPath class="axesclip" id="clip49f5dey"><rect x="0" y="60" width="1200" height="460"/></clipPath><clipPath class="axesclip" id="clip49f5dexy"><rect x="80" y="60" width="1040" height="460"/></clipPath></g><g class="gradients"/><g class="patterns"/></defs><g class="bglayer"/><g class="layer-below"><g class="imagelayer"/><g class="shapelayer"/></g><g class="cartesianlayer"><g class="subplot xy"><g class="layer-subplot"><g class="shapelayer"/><g class="imagelayer"/></g><g class="minor-gridlayer"><g class="x"/><g class="y"/></g><g class="gridlayer"><g class="x"><path class="xgrid crisp" transform="translate(233.97,0)" d="M0,60v460" style="stroke: rgb(235, 240, 248); stroke-opacity: 1; stroke-width: 1px;"/><path class="xgrid crisp" transform="translate(411.17,0)" d="M0,60v460" style="stroke: rgb(235, 240, 248); stroke-opacity: 1; stroke-width: 1px;"/><path class="xgrid crisp" transform="translate(588.38,0)" d="M0,60v460" style="stroke: rgb(235, 240, 248); stroke-opacity: 1; stroke-width: 1px;"/><path class="xgrid crisp" transform="translate(768.49,0)" d="M0,60v460" style="stroke: rgb(235, 240, 248); stroke-opacity: 1; stroke-width: 1px;"/><path class="xgrid crisp" transform="translate(945.7,0)" d="M0,60v460" style="stroke: rgb(235, 240, 248); stroke-opacity: 1; stroke-width: 1px;"/></g><g class="y"><path class="ygrid crisp" transform="translate(0,442.35)" d="M80,0h1040" style="stroke: rgb(235, 240, 248); stroke-opacity: 1; stroke-width: 1px;"/><path class="ygrid crisp" transform="translate(0,384.75)" d="M80,0h1040" style="stroke: rgb(235, 240, 248); stroke-opacity: 1; stroke-width: 1px;"/><path class="ygrid crisp" transform="translate(0,327.14)" d="M80,0h1040" style="stroke: rgb(235, 240, 248); stroke-opacity: 1; stroke-width: 1px;"/><path class="ygrid crisp" transform="translate(0,269.53999999999996)" d="M80,0h1040" style="stroke: rgb(235, 240, 248); stroke-opacity: 1; stroke-width: 1px;"/><path class="ygrid crisp" transform="translate(0,211.93)" d="M80,0h1040" style="stroke: rgb(235, 240, 248); stroke-opacity: 1; stroke-width: 1px;"/><path class="ygrid crisp" transform="translate(0,154.32999999999998)" d="M80,0h1040" style="stroke: rgb(235, 240, 248); stroke-opacity: 1; stroke-width: 1px;"/><path class="ygrid crisp" transform="translate(0,96.72)" d="M80,0h1040" style="stroke: rgb(235, 240, 248); stroke-opacity: 1; stroke-width: 1px;"/></g></g><g class="zerolinelayer"><path class="yzl zl crisp" transform="translate(0,499.96)" d="M80,0h1040" style="stroke: rgb(235, 240, 248); stroke-opacity: 1; stroke-width: 2px;"/></g><path class="xlines-below"/><path class="ylines-below"/><g class="overlines-below"/><g class="xaxislayer-below"/><g class="yaxislayer-below"/><g class="overaxes-below"/><g class="plot" transform="translate(80,60)" clip-path="url(#clip49f5dexyplot)"><g class="scatterlayer mlayer"><g class="trace scatter trace8f5feb" style="stroke-miterlimit: 2; opacity: 1;"><g class="fills"/><g class="errorbars"/><g class="lines"><path class="js-line" d="M0,347.06L2.91,323.02L5.81,334.57L8.72,316.53L11.62,262.67L17.43,287.04L20.34,244.69L23.24,202.76L26.15,198.47L29.05,183.96L31.96,185.4L34.86,116.65L37.77,158.89L40.67,124.59L43.58,161.74L46.48,128.97L49.39,142.67L52.29,121.51L55.2,91.62L58.1,57.64L61.01,97.82L63.91,79.09L66.82,100.45L69.72,46.73L72.63,34.8L75.53,23L78.44,27.3L81.34,25.57L84.25,71.63L87.15,81.63L90.06,107.89L92.96,52.58L95.87,88.14L98.77,88.76L101.68,118.72L104.58,129.02L107.49,120.28L110.39,138.66L113.3,108.34L116.2,106.17L119.11,45.93L122.01,134.37L124.92,114.69L127.82,125.08L130.73,118.83L133.63,87L136.54,120.16L139.44,151.15L142.35,145.13L145.25,153.82L148.16,151.46L151.06,150.67L153.97,163.29L156.87,143.52L159.78,163.43L162.68,205.24L165.59,175.09L168.49,188.11L171.4,188.11L174.3,200.93L177.21,207.46L180.11,199.3L183.02,179.18L185.92,218.7L188.83,233.23L191.73,226.35L194.64,206.25L197.54,188.96L200.45,245.17L203.35,232.77L206.26,259.87L209.16,261.4L212.07,239.91L214.97,255.44L217.88,259.33L220.78,245.18L223.69,266.92L226.59,267.71L229.5,249.32L232.4,239.84L235.31,268.21L238.21,257.77L241.12,284.17L246.93,261.29L249.83,296.48L252.74,290.59L255.64,300.14L258.55,304.18L261.45,304.29L264.36,277.33L267.26,285.33L270.17,294.52L273.07,313.43L275.98,307.57L278.88,297.96L281.79,309.25L284.69,290.2L287.6,315.55L290.5,317.05L293.41,310.48L296.31,314.5L299.22,322.44L302.12,327.1L305.03,302.59L307.93,329.86L310.84,327.68L313.74,334.49L316.65,321.12L319.55,325.94L322.46,337.45L328.27,350.11L331.17,350.49L334.08,329.77L336.98,341.09L339.89,315.82L342.79,340.9L345.7,352.06L351.51,356.41L354.41,337.5L357.32,354.23L360.22,348.43L363.13,352.78L366.03,350.57L368.94,355.6L371.84,362.64L374.75,361.21L377.65,358.48L380.56,354.78L383.46,358.25L386.37,359.45L389.27,362.98L392.18,361.72L395.08,363.42L397.99,366.94L400.89,367.7L406.7,366.4L409.61,370.75L412.51,374.47L415.42,369.72L418.32,367.64L421.23,367.1L424.13,369.36L427.04,364.58L429.94,372.83L432.85,374.59L435.75,372.59L438.66,372L441.56,369.65L444.47,370.81L450.28,380.1L453.18,374.65L456.09,377.97L458.99,370.87L461.9,375.45L464.8,378.4L467.71,376.98L470.61,385.57L473.52,376.18L476.42,381.8L479.33,378.5L482.23,385.07L485.14,378.77L488.04,381.64L490.95,386.86L493.85,381.84L496.76,384.67L499.66,385.45L505.47,389.02L508.38,385.52L511.28,391.84L514.19,393.32L522.91,385.41L525.81,389.95L528.72,390.64L531.62,385.7L534.53,391.82L537.43,393.25L540.34,385.91L543.24,386.68L546.15,393.24L549.05,394.76L551.96,395.29L554.86,394.32L557.77,390.91L560.67,394.26L563.58,391.3L566.48,394.93L569.39,390.3L572.29,397.6L575.2,394.09L578.1,394.76L581.01,394.83L583.91,395.74L586.82,393.13L589.72,396.42L592.63,396.92L595.53,394.74L601.34,399.74L604.25,395.74L607.15,397.07L610.06,396.93L612.96,395.21L615.87,398.23L618.77,399.04L621.68,398.23L624.58,396.58L627.49,396.98L630.39,400.56L633.3,399.32L636.2,403.49L639.11,399.2L642.01,399.51L644.92,398.7L650.73,400.83L653.63,395.9L656.54,398.92L659.44,398.61L662.35,401.31L665.25,401.13L668.16,397.63L671.06,399.96L673.97,403.97L676.87,405.15L679.78,400.46L682.68,401.18L685.59,399.24L688.49,403.2L691.4,398.8L694.3,404.02L700.11,402.25L703.02,402.25L705.92,404.25L708.83,403.14L711.73,402.89L714.64,406.28L717.54,407.83L720.45,406.38L723.35,405.98L726.26,402.93L729.16,401.54L732.07,396.98L734.97,401.46L737.88,401.82L740.78,399.58L743.69,403.93L746.59,403.12L749.5,400.26L752.4,403.66L755.31,402.2L758.21,406.56L761.12,403.43L764.02,404.26L766.93,403.84L769.83,404.85L772.74,403.99L775.64,407.47L778.55,405.29L781.45,402.76L784.36,403.08L787.26,404.32L790.17,402.49L793.07,406.52L795.98,408.96L798.88,407.23L801.79,408.99L804.69,407.04L807.6,406.37L810.5,408.63L813.41,406.66L816.31,404.93L819.22,404.87L822.12,403.93L825.03,407L827.93,407.33L830.84,406.85L836.65,406.45L839.55,406.23L845.36,406.6L848.27,405.32L851.17,408.15L854.08,407.81L856.98,410.98L859.89,411.53L862.79,409.43L865.7,408.27L868.6,408.08L871.51,405.91L874.41,408.47L877.32,405.69L880.22,404.17L883.13,409.89L888.94,406.57L891.84,408.31L897.65,411.55L900.56,411.06L906.37,408.31L909.27,410.49L915.08,406.31L917.99,411.45L920.89,411.17L923.8,411.98L926.7,408.35L929.61,409.24L932.51,408.04L935.42,412.08L944.13,409.95L947.04,412.61L949.94,437L952.85,413.89L955.75,411.56L958.66,412.46L961.56,410.49L964.47,413.28L967.37,412.87L970.28,411.27L973.18,415.54L976.09,412.72L978.99,415.58L981.9,414.67L987.71,412.19L990.61,415.97L993.52,414.41L999.33,414.23L1002.23,414.42L1005.14,409.99L1013.85,416.35L1016.76,414.69L1019.66,416.59L1022.57,422.04L1025.47,416.9L1028.38,415.9L1034.19,416.92L1037.09,415.53L1040,416.48" style="vector-effect: non-scaling-stroke; fill: none; stroke: rgb(99, 110, 250); stroke-opacity: 1; stroke-width: 2px; opacity: 1;"/></g><g class="points"/><g class="text"/></g></g></g><g class="overplot"/><path class="xlines-above crisp" d="M0,0" style="fill: none;"/><path class="ylines-above crisp" d="M0,0" style="fill: none;"/><g class="overlines-above"/><g class="xaxislayer-above"><g class="xtick"><text text-anchor="middle" x="0" y="533" transform="translate(233.97,0)" style="font-family: 'Open Sans', verdana, arial, sans-serif; font-size: 12px; fill: rgb(42, 63, 95); fill-opacity: 1; white-space: pre; opacity: 1;">Mar 2022</text></g><g class="xtick"><text text-anchor="middle" x="0" y="533" style="font-family: 'Open Sans', verdana, arial, sans-serif; font-size: 12px; fill: rgb(42, 63, 95); fill-opacity: 1; white-space: pre; opacity: 1;" transform="translate(411.17,0)">May 2022</text></g><g class="xtick"><text text-anchor="middle" x="0" y="533" style="font-family: 'Open Sans', verdana, arial, sans-serif; font-size: 12px; fill: rgb(42, 63, 95); fill-opacity: 1; white-space: pre; opacity: 1;" transform="translate(588.38,0)">Jul 2022</text></g><g class="xtick"><text text-anchor="middle" x="0" y="533" style="font-family: 'Open Sans', verdana, arial, sans-serif; font-size: 12px; fill: rgb(42, 63, 95); fill-opacity: 1; white-space: pre; opacity: 1;" transform="translate(768.49,0)">Sep 2022</text></g><g class="xtick"><text text-anchor="middle" x="0" y="533" style="font-family: 'Open Sans', verdana, arial, sans-serif; font-size: 12px; fill: rgb(42, 63, 95); fill-opacity: 1; white-space: pre; opacity: 1;" transform="translate(945.7,0)">Nov 2022</text></g></g><g class="yaxislayer-above"><g class="ytick"><text text-anchor="end" x="79" y="4.199999999999999" transform="translate(0,499.96)" style="font-family: 'Open Sans', verdana, arial, sans-serif; font-size: 12px; fill: rgb(42, 63, 95); fill-opacity: 1; white-space: pre; opacity: 1;">0</text></g><g class="ytick"><text text-anchor="end" x="79" y="4.199999999999999" style="font-family: 'Open Sans', verdana, arial, sans-serif; font-size: 12px; fill: rgb(42, 63, 95); fill-opacity: 1; white-space: pre; opacity: 1;" transform="translate(0,442.35)">50k</text></g><g class="ytick"><text text-anchor="end" x="79" y="4.199999999999999" style="font-family: 'Open Sans', verdana, arial, sans-serif; font-size: 12px; fill: rgb(42, 63, 95); fill-opacity: 1; white-space: pre; opacity: 1;" transform="translate(0,384.75)">100k</text></g><g class="ytick"><text text-anchor="end" x="79" y="4.199999999999999" style="font-family: 'Open Sans', verdana, arial, sans-serif; font-size: 12px; fill: rgb(42, 63, 95); fill-opacity: 1; white-space: pre; opacity: 1;" transform="translate(0,327.14)">150k</text></g><g class="ytick"><text text-anchor="end" x="79" y="4.199999999999999" style="font-family: 'Open Sans', verdana, arial, sans-serif; font-size: 12px; fill: rgb(42, 63, 95); fill-opacity: 1; white-space: pre; opacity: 1;" transform="translate(0,269.53999999999996)">200k</text></g><g class="ytick"><text text-anchor="end" x="79" y="4.199999999999999" style="font-family: 'Open Sans', verdana, arial, sans-serif; font-size: 12px; fill: rgb(42, 63, 95); fill-opacity: 1; white-space: pre; opacity: 1;" transform="translate(0,211.93)">250k</text></g><g class="ytick"><text text-anchor="end" x="79" y="4.199999999999999" style="font-family: 'Open Sans', verdana, arial, sans-serif; font-size: 12px; fill: rgb(42, 63, 95); fill-opacity: 1; white-space: pre; opacity: 1;" transform="translate(0,154.32999999999998)">300k</text></g><g class="ytick"><text text-anchor="end" x="79" y="4.199999999999999" style="font-family: 'Open Sans', verdana, arial, sans-serif; font-size: 12px; fill: rgb(42, 63, 95); fill-opacity: 1; white-space: pre; opacity: 1;" transform="translate(0,96.72)">350k</text></g></g><g class="overaxes-above"/></g></g><g class="polarlayer"/><g class="smithlayer"/><g class="ternarylayer"/><g class="geolayer"/><g class="funnelarealayer"/><g class="pielayer"/><g class="iciclelayer"/><g class="treemaplayer"/><g class="sunburstlayer"/><g class="glimages"/><defs id="topdefs-49f5de"><g class="clips"/></defs><g class="layer-above"><g class="imagelayer"/><g class="shapelayer"/></g><g class="infolayer"><g class="g-gtitle"><text class="gtitle" x="600" y="48" text-anchor="middle" dy="0.35em" style="font-family: 'Open Sans', verdana, arial, sans-serif; font-size: 20px; fill: rgb(42, 63, 95); opacity: 1; font-weight: normal; white-space: pre;">Number of Reported Results</text></g><g class="g-xtitle"/><g class="g-ytitle"><text class="ytitle" transform="rotate(-90,24.700000000000003,290)" x="24.700000000000003" y="290" text-anchor="middle" style="font-family: 'Open Sans', verdana, arial, sans-serif; font-size: 14px; fill: rgb(42, 63, 95); opacity: 1; font-weight: normal; white-space: pre;">Number</text></g></g></svg>