<svg class="main-svg" xmlns="http://www.w3.org/2000/svg" xmlns:xlink="http://www.w3.org/1999/xlink" width="1200" height="600" style="" viewBox="0 0 1200 600"><rect x="0" y="0" width="1200" height="600" style="fill: rgb(255, 255, 255); fill-opacity: 1;"/><defs id="defs-5bb163"><g class="clips"><clipPath id="clip5bb163xyplot" class="plotclip"><rect width="1040" height="460"/></clipPath><clipPath class="axesclip" id="clip5bb163x"><rect x="80" y="0" width="1040" height="600"/></clipPath><clipPath class="axesclip" id="clip5bb163y"><rect x="0" y="60" width="1200" height="460"/></clipPath><clipPath class="axesclip" id="clip5bb163xy"><rect x="80" y="60" width="1040" height="460"/></clipPath></g><g class="gradients"/><g class="patterns"/></defs><g class="bglayer"/><g class="layer-below"><g class="imagelayer"/><g class="shapelayer"/></g><g class="cartesianlayer"><g class="subplot xy"><g class="layer-subplot"><g class="shapelayer"/><g class="imagelayer"/></g><g class="minor-gridlayer"><g class="x"/><g class="y"/></g><g class="gridlayer"><g class="x"><path class="xgrid crisp" transform="translate(233.97,0)" d="M0,60v460" style="stroke: rgb(235, 240, 248); stroke-opacity: 1; stroke-width: 1px;"/><path class="xgrid crisp" transform="translate(411.17,0)" d="M0,60v460" style="stroke: rgb(235, 240, 248); stroke-opacity: 1; stroke-width: 1px;"/><path class="xgrid crisp" transform="translate(588.38,0)" d="M0,60v460" style="stroke: rgb(235, 240, 248); stroke-opacity: 1; stroke-width: 1px;"/><path class="xgrid crisp" transform="translate(768.49,0)" d="M0,60v460" style="stroke: rgb(235, 240, 248); stroke-opacity: 1; stroke-width: 1px;"/><path class="xgrid crisp" transform="translate(945.7,0)" d="M0,60v460" style="stroke: rgb(235, 240, 248); stroke-opacity: 1; stroke-width: 1px;"/></g><g class="y"><path class="ygrid crisp" transform="translate(0,412.68)" d="M80,0h1040" style="stroke: rgb(235, 240, 248); stroke-opacity: 1; stroke-width: 1px;"/><path class="ygrid crisp" transform="translate(0,323.11)" d="M80,0h1040" style="stroke: rgb(235, 240, 248); stroke-opacity: 1; stroke-width: 1px;"/><path class="ygrid crisp" transform="translate(0,233.54)" d="M80,0h1040" style="stroke: rgb(235, 240, 248); stroke-opacity: 1; stroke-width: 1px;"/><path class="ygrid crisp" transform="translate(0,143.98000000000002)" d="M80,0h1040" style="stroke: rgb(235, 240, 248); stroke-opacity: 1; stroke-width: 1px;"/></g></g><g class="zerolinelayer"><path class="yzl zl crisp" transform="translate(0,502.24)" d="M80,0h1040" style="stroke: rgb(235, 240, 248); stroke-opacity: 1; stroke-width: 2px;"/></g><path class="xlines-below"/><path class="ylines-below"/><g class="overlines-below"/><g class="xaxislayer-below"/><g class="yaxislayer-below"/><g class="overaxes-below"/><g class="plot" transform="translate(80,60)" clip-path="url(#clip5bb163xyplot)"><g class="scatterlayer mlayer"><g class="trace scatter traced4717d" style="stroke-miterlimit: 2; opacity: 1;"><g class="fills"/><g class="errorbars"/><g class="lines"><path class="js-line" d="M0,434.68L2.91,434.47L5.81,432.88L11.62,433.46L17.43,430.96L23.24,432.12L26.15,431.66L31.96,429.67L34.86,430.92L40.67,430.12L43.58,429.54L46.48,429.59L49.39,427.81L52.29,428.14L55.2,427.19L58.1,426.79L61.01,425.43L63.91,425.67L66.82,424.73L75.53,424.67L78.44,423.98L84.25,423.04L87.15,422.49L90.06,421.52L92.96,421.77L98.77,422.44L101.68,425.17L104.58,426.8L107.49,437L110.39,424.53L113.3,426.15L127.82,424.07L130.73,424.75L133.63,424.97L136.54,423.83L139.44,423.66L142.35,421.79L145.25,424.06L148.16,423.58L151.06,423.48L153.97,422.52L156.87,423.42L159.78,422.72L162.68,421.59L165.59,421.98L171.4,422.12L174.3,421.16L180.11,420.89L183.02,417.71L185.92,420.43L188.83,419.94L191.73,419.6L194.64,420.11L200.45,418.81L203.35,419.07L206.26,417.85L209.16,417.92L212.07,418.52L214.97,417.62L220.78,417.56L223.69,416.72L226.59,414.16L229.5,415.36L232.4,414.88L235.31,416.73L238.21,415.86L241.12,414.2L246.93,415.34L249.83,413.72L252.74,414.81L255.64,413.82L264.36,413.66L267.26,413.76L270.17,414.24L273.07,412.74L275.98,413.89L278.88,413.78L284.69,412.88L287.6,413.07L293.41,412.99L296.31,408.53L299.22,412.41L302.12,410.42L305.03,413.21L307.93,411.87L313.74,410.21L316.65,412.59L319.55,412.54L322.46,410.46L331.17,409.38L334.08,411.67L336.98,411.24L339.89,412.14L342.79,409.36L345.7,410.06L348.6,410.77L351.51,409.79L354.41,411.29L357.32,409.21L360.22,410.18L363.13,410.17L368.94,409.89L371.84,409.13L374.75,408.31L377.65,409.68L380.56,408.66L383.46,409.65L386.37,408.68L389.27,408.91L392.18,409.75L395.08,409.17L400.89,407.72L403.8,408.7L415.42,407.42L418.32,407.98L421.23,408.27L424.13,407.38L427.04,408.32L429.94,408.18L435.75,407.41L438.66,408.54L441.56,408.44L444.47,407.44L450.28,407.02L453.18,408.09L456.09,407.77L458.99,406.68L464.8,407.78L467.71,407.42L470.61,403.34L473.52,406.66L479.33,407.03L482.23,405.95L485.14,407.52L488.04,406.93L490.95,406.58L493.85,407.15L499.66,405.86L502.57,403.42L505.47,404.18L508.38,406.3L511.28,404.55L514.19,403.96L517.09,404.53L520,406.04L522.91,403.94L525.81,404.37L528.72,405.79L531.62,404.84L537.43,404.36L540.34,405.3L543.24,406.15L546.15,404.83L549.05,403.97L551.96,404.36L560.67,404.33L563.58,403.17L572.29,404.35L575.2,403.99L578.1,404.13L581.01,402.15L583.91,403.92L586.82,403.8L592.63,404.23L595.53,403.8L598.44,401.9L601.34,398.88L604.25,403.42L607.15,402.11L610.06,401.14L612.96,403.1L618.77,402.06L621.68,404.92L624.58,402.85L627.49,403.31L630.39,401.96L633.3,401.81L636.2,400.25L639.11,401.99L642.01,402.86L644.92,402.57L647.82,401.59L650.73,402.86L653.63,404.2L656.54,402.18L659.44,403.27L662.35,403.09L668.16,403.54L671.06,402.95L673.97,402.34L676.87,399.76L679.78,402.11L682.68,402.21L685.59,402.13L688.49,401.14L691.4,402.77L694.3,400.94L697.21,401.84L700.11,401.61L708.83,400.2L711.73,401.75L714.64,399.71L717.54,399.29L720.45,397.95L723.35,401.16L729.16,401.8L732.07,392.67L734.97,401.06L737.88,401.14L740.78,398.42L743.69,401.54L752.4,401.13L755.31,400.2L761.12,401.51L764.02,400.5L766.93,399.3L769.83,400.67L772.74,401.24L775.64,399.43L778.55,400.94L781.45,401.06L784.36,399.44L787.26,400.48L790.17,401.11L793.07,398.43L795.98,398.27L798.88,400.18L801.79,398.02L804.69,399.11L807.6,396.97L810.5,398.16L813.41,399.61L816.31,396.24L819.22,400.28L822.12,399.78L825.03,398.34L827.93,398.06L830.84,399.1L833.74,398.55L836.65,398.98L839.55,396.04L842.46,399.42L845.36,398.67L854.08,399.94L856.98,397.1L859.89,396.94L862.79,398.78L865.7,382.53L868.6,399.52L874.41,400.21L877.32,400.82L880.22,398.81L883.13,400.39L888.94,400.87L891.84,400.26L894.75,400.24L897.65,399.46L900.56,397.34L903.46,400.61L909.27,397.75L912.18,400.99L915.08,397.79L917.99,398.82L920.89,399.31L923.8,398.32L926.7,400.88L929.61,401.08L932.51,398.2L935.42,399.14L941.23,400.38L944.13,399.54L947.04,398.55L949.94,23L952.85,398.7L955.75,399.67L964.47,399.69L967.37,399.17L970.28,399.29L973.18,402.89L978.99,399.04L981.9,399.9L987.71,400.92L990.61,398.2L993.52,399.29L999.33,400.38L1002.23,399.65L1005.14,400.54L1008.04,400.29L1010.95,401.14L1013.85,397.79L1016.76,399.13L1019.66,400.05L1022.57,397.27L1025.47,396.52L1028.38,399.09L1034.19,399.28L1037.09,400.57L1040,400.51" style="vector-effect: non-scaling-stroke; fill: none; stroke: rgb(99, 110, 250); stroke-opacity: 1; stroke-width: 2px; opacity: 1;"/></g><g class="points"/><g class="text"/></g></g></g><g class="overplot"/><path class="xlines-above crisp" d="M0,0" style="fill: none;"/><path class="ylines-above crisp" d="M0,0" style="fill: none;"/><g class="overlines-above"/><g class="xaxislayer-above"><g class="xtick"><text text-anchor="middle" x="0" y="533" transform="translate(233.97,0)" style="font-family: 'Open Sans', verdana, arial, sans-serif; font-size: 12px; fill: rgb(42, 63, 95); fill-opacity: 1; white-space: pre; opacity: 1;">Mar 2022</text></g><g class="xtick"><text text-anchor="middle" x="0" y="533" style="font-family: 'Open Sans', verdana, arial, sans-serif; font-size: 12px; fill: rgb(42, 63, 95); fill-opacity: 1; white-space: pre; opacity: 1;" transform="translate(411.17,0)">May 2022</text></g><g class="xtick"><text text-anchor="middle" x="0" y="533" style="font-family: 'Open Sans', verdana, arial, sans-serif; font-size: 12px; fill: rgb(42, 63, 95); fill-opacity: 1; white-space: pre; opacity: 1;" transform="translate(588.38,0)">Jul 2022</text></g><g class="xtick"><text text-anchor="middle" x="0" y="533" style="font-family: 'Open Sans', verdana, arial, sans-serif; font-size: 12px; fill: rgb(42, 63, 95); fill-opacity: 1; white-space: pre; opacity: 1;" transform="translate(768.49,0)">Sep 2022</text></g><g class="xtick"><text text-anchor="middle" x="0" y="533" style="font-family: 'Open Sans', verdana, arial, sans-serif; font-size: 12px; fill: rgb(42, 63, 95); fill-opacity: 1; white-space: pre; opacity: 1;" transform="translate(945.7,0)">Nov 2022</text></g></g><g class="yaxislayer-above"><g class="ytick"><text text-anchor="end" x="79" y="4.199999999999999" transform="translate(0,502.24)" style="font-family: 'Open Sans', verdana, arial, sans-serif; font-size: 12px; fill: rgb(42, 63, 95); fill-opacity: 1; white-space: pre; opacity: 1;">0</text></g><g class="ytick"><text text-anchor="end" x="79" y="4.199999999999999" style="font-family: 'Open Sans', verdana, arial, sans-serif; font-size: 12px; fill: rgb(42, 63, 95); fill-opacity: 1; white-space: pre; opacity: 1;" transform="translate(0,412.68)">0.2</text></g><g class="ytick"><text text-anchor="end" x="79" y="4.199999999999999" style="font-family: 'Open Sans', verdana, arial, sans-serif; font-size: 12px; fill: rgb(42, 63, 95); fill-opacity: 1; white-space: pre; opacity: 1;" transform="translate(0,323.11)">0.4</text></g><g class="ytick"><text text-anchor="end" x="79" y="4.199999999999999" style="font-family: 'Open Sans', verdana, arial, sans-serif; font-size: 12px; fill: rgb(42, 63, 95); fill-opacity: 1; white-space: pre; opacity: 1;" transform="translate(0,233.54)">0.6</text></g><g class="ytick"><text text-anchor="end" x="79" y="4.199999999999999" style="font-family: 'Open Sans', verdana, arial, sans-serif; font-size: 12px; fill: rgb(42, 63, 95); fill-opacity: 1; white-space: pre; opacity: 1;" transform="translate(0,143.98000000000002)">0.8</text></g></g><g class="overaxes-above"/></g></g><g class="polarlayer"/><g class="smithlayer"/><g class="ternarylayer"/><g class="geolayer"/><g class="funnelarealayer"/><g class="pielayer"/><g class="iciclelayer"/><g class="treemaplayer"/><g class="sunburstlayer"/><g class="glimages"/><defs id="topdefs-5bb163"><g class="clips"/></defs><g class="layer-above"><g class="imagelayer"/><g class="shapelayer"/></g><g class="infolayer"><g class="g-gtitle"><text class="gtitle" x="600" y="48" text-anchor="middle" dy="0.35em" style="font-family: 'Open Sans', verdana, arial, sans-serif; font-size: 20px; fill: rgb(42, 63, 95); opacity: 1; font-weight: normal; white-space: pre;">Percentage of Hard Mode</text></g><g class="g-xtitle"/><g class="g-ytitle"><text class="ytitle" transform="rotate(-90,35.075,290)" x="35.075" y="290" text-anchor="middle" style="font-family: 'Open Sans', verdana, arial, sans-serif; font-size: 14px; fill: rgb(42, 63, 95); opacity: 1; font-weight: normal; white-space: pre;">Percentage</text></g></g></svg>